# xmcd
#
# Track frame offsets:
#	150
#	15413
#	29293
#	51018
#	64661
#	79939
#	110179
#	124862
#	148665
#	161707
#	185832
#	198654
#	213092
#	226742
#	238617
#	251427
#	264524
#	279262
#	305132
#	318558
#
# Disc length: 4427
#
# Revision: 2
# Processed by: cddbd v1.5.1PL0 Copyright (c) Steve Scherf et al.
# Submitted via: Kscd 1.3.3
# Normalized: r1:DSETVAR1,TDELIM( - )
#
DISCID=22114914
DTITLE=Various Artist - 100% Vintage Blues
DYEAR=1900
DGENRE=
TTITLE0=Memphis Slim - Beer drinking woman
TTITLE1=Chuck Berry - Wee wee hours
TTITLE2=Taj Mahal - Leaving truck
TTITLE3=Lightnin Hopkins - Katie Mae Blues
TTITLE4=Ray Charles - Sinner's prayer
TTITLE5=John Lee Hooker - Kick hit 4 hit kix you
TTITLE6=Buddy Guy - The way you been treating me
TTITLE7=Muddy Waters - Mannish boy
TTITLE8=Howlin' Wolf - I ain't superstitous
TTITLE9=Buddy Guy and Junior Wells - Country girl
TTITLE10=Memphis Minnie - Don't turn the card
TTITLE11=Otis Rush - So many roads, so many trains
TTITLE12=Albert King - Bad luck
TTITLE13=Little Walter - My babe
TTITLE14=Big Mama Thornton - Hound dog
TTITLE15=Champion Jack Dupree - Weed head woman
TTITLE16=Muddy Waters - Still a fool
TTITLE17=Luther Allison - You gonna need me
TTITLE18=Joe Turner - Last goodbye Blues
TTITLE19=B. B. King - Rock me baby
EXTD=
EXTT0=
EXTT1=
EXTT2=
EXTT3=
EXTT4=
EXTT5=
EXTT6=
EXTT7=
EXTT8=
EXTT9=
EXTT10=
EXTT11=
EXTT12=
EXTT13=
EXTT14=
EXTT15=
EXTT16=
EXTT17=
EXTT18=
EXTT19=
PLAYORDER=
